<svg width="31" height="26" viewBox="0 0 31 26" fill="none" xmlns="http://www.w3.org/2000/svg">
<rect x="25.4219" y="2.11328" width="4.57693" height="22.8096" fill="#A0E9DE" stroke="#2B3554" stroke-width="0.5" stroke-linecap="round" stroke-linejoin="round"/>
<rect x="27.3828" y="2.31641" width="2.49789" height="22.4018" fill="#41D3BD"/>
<rect x="25.4219" y="24.9258" width="24.5032" height="22.8096" transform="rotate(180 25.4219 24.9258)" fill="#41D3BD" stroke="#2B3554" stroke-width="0.5" stroke-linecap="round" stroke-linejoin="round"/>
<path d="M25.1396 24.7191C25.1396 24.7191 9.08011 20.3756 1.19531 2.32422H25.1396C25.1396 2.32422 24.969 24.8891 25.1396 24.7191Z" fill="#A0E9DE"/>
<path fill-rule="evenodd" clip-rule="evenodd" d="M23.8013 23.4507H18.6309C18.371 23.4507 18.1602 23.2413 18.1602 22.9829V20.9014C18.1602 20.643 18.371 20.4336 18.6309 20.4336H23.8013C24.0614 20.4336 24.2722 20.643 24.2722 20.9014V22.9829C24.2722 23.2413 24.0614 23.4507 23.8013 23.4507Z" fill="white"/>
<path d="M23.8013 23.4507H18.6309C18.371 23.4507 18.1602 23.2413 18.1602 22.9829V20.9014C18.1602 20.643 18.371 20.4336 18.6309 20.4336H23.8013C24.0614 20.4336 24.2722 20.643 24.2722 20.9014V22.9829C24.2722 23.2413 24.0614 23.4507 23.8013 23.4507" stroke="#2B3554" stroke-width="0.5"/>
<path d="M19.2284 22.0956C19.1432 22.0956 19.0742 22.027 19.0742 21.9424C19.0742 21.8577 19.1432 21.7891 19.2284 21.7891H23.2065C23.2916 21.7891 23.3606 21.8577 23.3606 21.9424C23.3606 22.027 23.2916 22.0956 23.2065 22.0956H19.2284Z" fill="#2B3554"/>
<path d="M19.7362 22.7871C19.651 22.7871 19.582 22.7184 19.582 22.6338C19.582 22.5491 19.651 22.4805 19.7362 22.4805H22.6979C22.783 22.4805 22.852 22.5491 22.852 22.6338C22.852 22.7184 22.783 22.7871 22.6979 22.7871H19.7362Z" fill="#2B3554"/>
<path d="M19.2284 21.4003C19.1432 21.4003 19.0742 21.3317 19.0742 21.247C19.0742 21.1624 19.1432 21.0938 19.2284 21.0938H23.2065C23.2916 21.0938 23.3606 21.1624 23.3606 21.247C23.3606 21.3317 23.2916 21.4003 23.2065 21.4003H19.2284Z" fill="#2B3554"/>
<path d="M29.9962 2.11492L27.2778 1.07812H4.35156L6.43337 2.11492H29.9962Z" fill="#41D3BD" stroke="#2B3554" stroke-width="0.5" stroke-linecap="round" stroke-linejoin="round"/>
<path d="M25.4212 2.11579L27.2797 1.35547H4.35344L0.917969 2.11579H25.4212Z" fill="#A0E9DE" stroke="#2B3554" stroke-width="0.5" stroke-linecap="round" stroke-linejoin="round"/>
<path d="M26.8438 21.0742H28.5774V24.9242H26.8438V21.0742Z" fill="#2D8578" stroke="#2B3554" stroke-width="0.5" stroke-linecap="round" stroke-linejoin="round"/>
<rect x="26.8438" y="2.17188" width="1.73368" height="3.84998" fill="#2D8578" stroke="#2B3554" stroke-width="0.5" stroke-linecap="round" stroke-linejoin="round"/>
<path fill-rule="evenodd" clip-rule="evenodd" d="M16.9234 8.77479L12.0414 13.6406L9.39844 11.0065L14.2805 6.14062L16.9234 8.77479Z" fill="#999999"/>
<path fill-rule="evenodd" clip-rule="evenodd" d="M16.9234 8.77479L12.0414 13.6406L9.39844 11.0065L14.2805 6.14062L16.9234 8.77479Z" stroke="#323854" stroke-width="0.576923" stroke-linecap="round" stroke-linejoin="round"/>
<path fill-rule="evenodd" clip-rule="evenodd" d="M16.6372 10.9601C18.6532 12.9695 18.6532 16.2274 16.6372 18.2368C14.621 20.2462 11.3523 20.2462 9.33626 18.2368C7.3202 16.2274 7.3202 12.9695 9.33626 10.9601C11.3523 8.95078 14.621 8.95078 16.6372 10.9601Z" fill="#B3B3B3"/>
<path fill-rule="evenodd" clip-rule="evenodd" d="M16.6372 10.9601C18.6532 12.9695 18.6532 16.2274 16.6372 18.2368C14.621 20.2462 11.3523 20.2462 9.33626 18.2368C7.3202 16.2274 7.3202 12.9695 9.33626 10.9601C11.3523 8.95078 14.621 8.95078 16.6372 10.9601Z" stroke="#323854" stroke-width="0.576923" stroke-linecap="round" stroke-linejoin="round"/>
<path fill-rule="evenodd" clip-rule="evenodd" d="M15.5491 12.2209C16.9159 13.5832 16.9159 15.7919 15.5491 17.1542C14.1823 18.5166 11.9661 18.5166 10.5993 17.1542C9.23252 15.7919 9.23252 13.5832 10.5993 12.2209C11.9661 10.8587 14.1823 10.8587 15.5491 12.2209Z" fill="#999999"/>
<path fill-rule="evenodd" clip-rule="evenodd" d="M15.5491 12.2209C16.9159 13.5832 16.9159 15.7919 15.5491 17.1542C14.1823 18.5166 11.9661 18.5166 10.5993 17.1542C9.23252 15.7919 9.23252 13.5832 10.5993 12.2209C11.9661 10.8587 14.1823 10.8587 15.5491 12.2209Z" stroke="#323854" stroke-width="0.576923" stroke-linecap="round" stroke-linejoin="round"/>
<path fill-rule="evenodd" clip-rule="evenodd" d="M15.1727 16.0436L14.6103 16.604L10.9727 12.9783L11.5349 12.418L15.1727 16.0436Z" fill="#8DE5D7"/>
<path fill-rule="evenodd" clip-rule="evenodd" d="M15.1727 16.0436L14.6103 16.604L10.9727 12.9783L11.5349 12.418L15.1727 16.0436Z" stroke="#323854" stroke-width="0.576923" stroke-linecap="round" stroke-linejoin="round"/>
<path fill-rule="evenodd" clip-rule="evenodd" d="M15.1727 12.9783L11.5349 16.604L10.9727 16.0436L14.6104 12.418L15.1727 12.9783Z" fill="#8DE5D7"/>
<path fill-rule="evenodd" clip-rule="evenodd" d="M15.1727 12.9783L11.5349 16.604L10.9727 16.0436L14.6104 12.418L15.1727 12.9783Z" stroke="#323854" stroke-width="0.576923" stroke-linecap="round" stroke-linejoin="round"/>
<path fill-rule="evenodd" clip-rule="evenodd" d="M12.5508 17.3029H13.4258V12.0703H12.5508V17.3029Z" fill="#8DE5D7"/>
<path fill-rule="evenodd" clip-rule="evenodd" d="M12.5508 17.3029H13.4258V12.0703H12.5508V17.3029Z" stroke="#323854" stroke-width="0.576923" stroke-linecap="round" stroke-linejoin="round"/>
<path fill-rule="evenodd" clip-rule="evenodd" d="M15.6992 15.0362H10.4492V14.1641L15.6992 14.1642V15.0362Z" fill="#8DE5D7"/>
<path fill-rule="evenodd" clip-rule="evenodd" d="M15.6992 15.0362H10.4492V14.1641L15.6992 14.1642V15.0362Z" stroke="#323854" stroke-width="0.576923" stroke-linecap="round" stroke-linejoin="round"/>
<path fill-rule="evenodd" clip-rule="evenodd" d="M14.2853 13.3059C15.0028 14.0212 15.0028 15.1807 14.2853 15.896C13.5677 16.6111 12.4042 16.6111 11.6866 15.896C10.9691 15.1807 10.9691 14.0212 11.6866 13.3059C12.4042 12.5907 13.5677 12.5907 14.2853 13.3059Z" fill="#8DE5D7"/>
<path fill-rule="evenodd" clip-rule="evenodd" d="M14.2853 13.3059C15.0028 14.0212 15.0028 15.1807 14.2853 15.896C13.5677 16.6111 12.4042 16.6111 11.6866 15.896C10.9691 15.1807 10.9691 14.0212 11.6866 13.3059C12.4042 12.5907 13.5677 12.5907 14.2853 13.3059Z" stroke="#323854" stroke-width="0.576923" stroke-linecap="round" stroke-linejoin="round"/>
<path fill-rule="evenodd" clip-rule="evenodd" d="M13.5172 13.896C13.8589 14.2366 13.8589 14.7888 13.5172 15.1294C13.1755 15.4699 12.6215 15.4699 12.2797 15.1294C11.938 14.7888 11.938 14.2366 12.2797 13.896C12.6215 13.5555 13.1755 13.5555 13.5172 13.896Z" fill="#999999"/>
<path fill-rule="evenodd" clip-rule="evenodd" d="M13.607 13.982C13.9487 14.3225 13.9487 14.8747 13.607 15.2153C13.2653 15.5559 12.7113 15.5559 12.3695 15.2153C12.0279 14.8747 12.0279 14.3225 12.3695 13.982C12.7113 13.6414 13.2653 13.6414 13.607 13.982Z" stroke="#323854" stroke-width="0.576923" stroke-linecap="round" stroke-linejoin="round"/>
<path fill-rule="evenodd" clip-rule="evenodd" d="M17.9758 8.55508L16.8986 9.62863L13.4258 6.16731L14.5029 5.09375L17.9758 8.55508Z" fill="#B3B3B3"/>
<path fill-rule="evenodd" clip-rule="evenodd" d="M17.9758 8.55508L16.8986 9.62863L13.4258 6.16731L14.5029 5.09375L17.9758 8.55508Z" stroke="#323854" stroke-width="0.576923" stroke-linecap="round" stroke-linejoin="round"/>
<path fill-rule="evenodd" clip-rule="evenodd" d="M15.7365 18.7539L16.7504 19.9192H14.6257L14.0273 19.484" fill="#B3B3B3"/>
<path d="M15.7365 18.7539L16.7504 19.9192H14.6257L14.0273 19.484" stroke="#323854" stroke-width="0.576923" stroke-linejoin="round"/>
</svg>
